<svg xmlns="http://www.w3.org/2000/svg" viewBox="0 0 262.2 64" width="197" height="48" role="img" aria-label="Convera"><title>Convera</title><defs><linearGradient id="cvw" x1="0" y1="0" x2="1" y2="1"><stop offset="0" stop-color="#5b52f0"/><stop offset="1" stop-color="#7c3aed"/></linearGradient></defs><rect width="64" height="64" rx="15" fill="url(#cvw)"/><path d="M41.64 20.45A15.0 15.0 0 1 0 41.64 42.75" fill="none" stroke="#fff" stroke-width="8.6" stroke-linecap="round"/><path d="M27.17 49.36L12.00 52.20L14.40 37.86Z" fill="#fff" stroke="#fff" stroke-width="3" stroke-linejoin="round"/><circle cx="46.60" cy="31.6" r="4.5" fill="#fff"/><path fill="#ffffff" d="M98.98990076645137 47.883397836765894Q95.4110392785236 47.883397836765894 92.62970084616576 46.84454103171487Q89.84836241380792 45.80568422666384 87.93679960160517 43.78555425581184Q86.02523678940241 41.765424284959835 85.04176506107306 38.87368298801876Q84.05829333274372 35.98194169107768 84.05829333274372 32.28387566768762Q84.05829333274372 28.495586180534552 85.06670518225539 25.514904731708214Q86.07511703176706 22.53422328288187 87.98209536410022 20.422952079267777Q89.88907369643337 18.311680875653682 92.5655196054133 17.214141519443892Q95.24196551439324 16.116602163234106 98.61470873357558 16.116602163234106Q101.30490717551756 16.116602163234106 103.50181141968139 16.82885563927985Q105.69871566384523 17.541109115325593 107.25323670562216 18.87337511689543Q108.80775774739908 20.205641118465273 109.64122515332913 22.061094584523445Q110.47469255925918 23.916548050581618 110.4545211836357 26.189744231629778L104.29079262103151 27.65420411525181Q104.31169803725612 25.647262060918816 103.49967850249288 24.309667364688533Q102.68765896772966 22.97207266845825 101.3485947800151 22.273017719616604Q100.00953059230056 21.573962770774962 98.39282272838226 21.573962770774962Q97.00240585197497 21.573962770774962 95.67232622403058 22.13896761548734Q94.3422465960862 22.70397246019971 93.29659657444748 23.93758988370272Q92.25094655280876 25.171207307205734 91.63367991351635 27.126434991457923Q91.01641327422395 29.081662675710113 91.01641327422395 31.897317455686405Q91.01641327422395 35.5308553984671 92.04372255582024 37.85632791341085Q93.07103183741653 40.181800428354606 94.92228077151952 41.31070260989875Q96.77352970562254 42.43960479144289 99.15787733117062 42.43960479144289Q101.60639907892116 42.43960479144289 103.01074728078746 41.40533223118577Q104.41509548265374 40.37105967092864 105.03530080269908 38.68357303189537Q105.65550612274444 36.996086392862104 105.6639431237356 35.04414681470812L111.59038197649924 35.92473454109083Q111.60285173487483 38.41285197124958 110.9298412251766 40.58812098943375Q110.25683071547837 42.763390007617915 108.76575754542384 44.40685371962856Q107.2746843753693 46.0503174316392 104.85698924357015 46.96685763420255Q102.439294111771 47.883397836765894 98.98990076645137 47.883397836765894Z M126.19931871966656 47.883397836765894Q122.58451348580985 47.883397836765894 119.82132857296136 46.44550282000846Q117.05814366011288 45.00760780325103 115.49298698767652 42.1595122388423Q113.92783031524017 39.31141667443356 113.92783031524017 35.07384574233526Q113.92783031524017 30.77392259336387 115.5204956465316 27.953151959412253Q117.11316097782304 25.13238132546063 119.88991493031128 23.737032457755767Q122.66666888279953 22.3416835900509 126.19821453598526 22.3416835900509Q129.80604802948903 22.3416835900509 132.57840153272122 23.772609317663942Q135.35075503595343 25.20353504527699 136.92306502814773 28.03787753943241Q138.495375020342 30.872220033587833 138.495375020342 35.13656662486663Q138.495375020342 39.479397537138766 136.8840068982646 42.31685569125058Q135.2726387761872 45.1543138453624 132.4812147231575 46.51885584106415Q129.6897906701278 47.883397836765894 126.19931871966656 47.883397836765894ZM126.39846820290285 42.94352824004141Q128.1567471154401 42.94352824004141 129.35864406164708 42.098497797554415Q130.56054100785406 41.25346735506742 131.18294710656065 39.57716487925923Q131.80535320526724 37.90086240345104 131.80535320526724 35.510288494687074Q131.80535320526724 32.97411138435092 131.14058646554355 31.20318536487916Q130.47581972581983 29.4322593454074 129.20258717817592 28.477018228427255Q127.92935463053202 27.521777111447108 126.0309740937202 27.521777111447108Q124.3170732418188 27.521777111447108 123.09665471487537 28.36167232536598Q121.87623618793194 29.201567539284852 121.24997860903034 30.871817756236787Q120.62372103012872 32.54206797318872 120.62372103012872 34.98508962106355Q120.62372103012872 38.85628902846665 122.1478230050779 40.89990863425403Q123.67192498002709 42.94352824004141 126.39846820290285 42.94352824004141Z M142.27822834028947 47.25V32.871079448520234L142.27456021913696 22.97691548739306H147.76823424553555L147.70440071763076 30.915891856423606H148.4944018214405Q149.02987605461738 28.0250563746544 150.0984396445565 26.121918609615584Q151.1670032344956 24.21878084457677 152.87630164221662 23.280232217313834Q154.58560004993765 22.3416835900509 156.9574546138869 22.3416835900509Q161.1191050281833 22.3416835900509 163.2655792550706 25.24167490252576Q165.4120534819579 28.14166621500062 165.4120534819579 34.28162378038873V47.25H158.73633474712403V35.008897890387615Q158.73633474712403 31.348589727962672 157.66923188476147 29.649918623488738Q156.6021290223989 27.9512475190148 154.46498787398028 27.9512475190148Q152.66526719749143 27.9512475190148 151.4389822219428 29.085839774391868Q150.21269724639416 30.220432029768936 149.57745540993795 32.220592552781895Q148.94221357348178 34.22075307579485 148.9187379742267 36.865504060490906V47.25Z M175.02210023636843 47.25 166.99914152832193 23.012124588289723H174.3056821414834L179.36156829759534 41.92210605764536H179.98249355542163L185.09669279118322 23.012124588289723H192.08855999791712L184.0362610887877 47.25Z M205.37754225519234 47.883397836765894Q202.30811264315113 47.883397836765894 199.9804594628499 47.028289496588215Q197.65280628254865 46.17318115641053 196.06766276873765 44.564008776297456Q194.48251925492661 42.95483639618438 193.67032630023493 40.6790745651674Q192.85813334554322 38.40331273415041 192.85813334554322 35.56017169189555Q192.85813334554322 32.73243287686597 193.6494213876456 30.316385323820974Q194.44070942974793 27.900337770775977 195.97157262129372 26.111453175309087Q197.50243581283954 24.322568579842194 199.75710336174114 23.332126084946545Q202.01177091064272 22.3416835900509 204.90918972315833 22.3416835900509Q207.73324705292615 22.3416835900509 209.8984223581018 23.279858212743065Q212.0635976632775 24.218032835435235 213.48608424090642 26.028183789803844Q214.90857081853534 27.838334744172453 215.54123736812426 30.41813827958805Q216.17390391771318 32.99794181500364 215.9109384343875 36.28853453961342L197.15029134743594 36.46201402477243V32.80138581802109L211.81718553317657 32.638909353177546L209.78241836824878 34.56037943005054Q210.0662891335193 32.16723715154962 209.47726267533463 30.608849351551157Q208.88823621714997 29.050461551552694 207.7015650226001 28.29162084165763Q206.51489382805022 27.532780131762564 204.96200122551033 27.532780131762564Q203.18978655524836 27.532780131762564 201.89840300644354 28.47041669829438Q200.60701945763873 29.408053264826197 199.92355066584003 31.161009123831086Q199.2400818740413 32.91396498283597 199.2400818740413 35.396965350157046Q199.2400818740413 39.29823691739108 200.89107455573838 41.14655533021767Q202.54206723743545 42.994873743044266 205.37644505578123 42.994873743044266Q206.6744289595126 42.994873743044266 207.55870320785397 42.647363788952035Q208.44297745619536 42.2998538348598 209.0156845225868 41.73081643418268Q209.58839158897825 41.16177903350555 209.90399582629857 40.435581841678214Q210.21960006361886 39.70938464985088 210.3652060857551 38.95384423495693L216.22415860114396 40.02404220747677Q215.95055191317067 41.70968655931735 215.19648653009315 43.13914413858826Q214.44242114701564 44.56860171785917 213.12886162978657 45.63184544418543Q211.81530211255748 46.6950891705117 209.9041076637974 47.2892435036388Q207.99291321503733 47.883397836765894 205.37754225519234 47.883397836765894Z M219.9145919766531 47.25V35.29386887722508L219.91092385550058 22.97691548739306H225.48308220289252L225.44858887607063 31.64317133899101H226.24445887969412Q226.58041630711858 28.380090664575498 227.45826288175093 26.354271056385937Q228.33610945638327 24.328451448196375 229.88457780280856 23.37339332090324Q231.43304614923386 22.4183351936101 233.67652533772034 22.4183351936101Q234.17055780694565 22.4183351936101 234.73886032751477 22.49517304391572Q235.30716284808392 22.57201089422134 235.99411274192178 22.78180245509597L235.71207395537445 29.89065911421891Q234.93490623890168 29.52756642807896 234.09649142936775 29.375176927049388Q233.25807661983382 29.22278742601982 232.57663320571072 29.22278742601982Q230.82350399391726 29.22278742601982 229.56165498527838 30.070024892727307Q228.29980597663953 30.917262359434794 227.55784111550417 32.541309454158004Q226.8158762543688 34.16535654888121 226.57527285193405 36.5071554735444V47.25Z M244.24673563047793 47.883397836765894Q242.2673181174577 47.883397836765894 240.67868510705534 47.12310002570915Q239.09005209665295 46.36280221465241 238.16856002456396 44.84348812477917Q237.24706795247496 43.32417403490593 237.24706795247496 41.048409618400605Q237.24706795247496 39.00628324381612 238.028634573642 37.64834559881129Q238.81020119480903 36.29040795380645 240.29320082489795 35.451068693218815Q241.7762004549869 34.61172943263117 243.85280894127703 34.082855319305125Q245.92941742756716 33.55398120597908 248.51033219807414 33.16594705551468Q250.1868184022803 32.88170540845304 251.1954214680954 32.65229446299966Q252.2040245339105 32.422883517546296 252.66669649473025 31.96827945556407Q253.12936845554998 31.513675393581842 253.12936845554998 30.642241651127396Q253.12936845554998 29.282264525626758 252.161285355261 28.378915127286348Q251.193202254972 27.47556572894594 249.2221977010087 27.47556572894594Q247.96236396299562 27.47556572894594 246.83052414162506 27.92485120331756Q245.69868432025453 28.374136677689172 244.90995235836246 29.32350926421103Q244.1212203964704 30.272881850732887 243.8512840457825 31.78359656686697L237.94685136792955 30.283188639330028Q238.38145918671438 28.195215249916707 239.39316864494293 26.699742604392778Q240.40487810317146 25.20426995886885 241.91465131058783 24.22739717518403Q243.42442451800417 23.25052439149921 245.33231897397872 22.796103990775052Q247.24021342995323 22.3416835900509 249.40264194225045 22.3416835900509Q252.91033990552762 22.3416835900509 255.16940612404778 23.51165114690719Q257.42847234256794 24.68161870376348 258.53884441454363 27.07711849254556Q259.64921648651926 29.47261828132764 259.64921648651926 33.16223541703922V37.35877475328179Q259.6510505470955 38.961158181309244 259.7047812287286 40.627729968639144Q259.7585119103618 42.294301755969045 259.85038614279847 43.956289063429345Q259.9422603752351 45.618276370889646 260.077227879008 47.25H254.19809995856926Q254.0723027576777 45.942109402373546 253.95347484593054 44.393817296440744Q253.83464693418338 42.845525190507935 253.7774338745089 41.19655802076626H253.06042055109177Q252.50844185458158 43.04357881747525 251.3019763109627 44.573901132296655Q250.09551076734382 46.104223447118066 248.31689343909366 46.99381064194198Q246.5382761108435 47.883397836765894 244.24673563047793 47.883397836765894ZM247.03370245361532 43.04658670284306Q247.92237738628845 43.04658670284306 248.85194598684285 42.72291543967599Q249.78151458739725 42.399244176508915 250.64084841234074 41.76656990393883Q251.5001822372842 41.13389563136875 252.1809017849959 40.163244362762484Q252.8616213327076 39.19259309415621 253.22325795861244 37.907802043017L253.1664116170229 34.64286481082496L254.25387032211788 34.77122876975177Q253.51117853893138 35.37932688580035 252.44811081802192 35.72646958451633Q251.38504309711243 36.07361228323231 250.20643869333364 36.27074820834042Q249.02783428955485 36.46788413344854 247.86719967688742 36.69032756939502Q246.70656506422003 36.9127710053415 245.76910651781822 37.28027216593424Q244.8316479714164 37.64777332652699 244.2763606861488 38.28778434503739Q243.72107340088115 38.92779536354779 243.72107340088115 40.046072155762126Q243.72107340088115 41.447488493209875 244.64880666485706 42.247037598026466Q245.57653992883297 43.04658670284306 247.03370245361532 43.04658670284306Z"/></svg>